<?xml version="1.0" encoding="utf-8"?>
<!-- Generator: Adobe Illustrator 19.0.0, SVG Export Plug-In . SVG Version: 6.00 Build 0)  -->
<svg xmlns="http://www.w3.org/2000/svg" xmlns:xlink="http://www.w3.org/1999/xlink" version="1.1" id="Layer_1" x="0px" y="0px" viewBox="0 2 98 98" style="enable-background:new 0 2 98 98;" xml:space="preserve" width="512" height="512">
<style type="text/css">
	.st0{fill:url(#SVGID_1_);}
	.st1{fill:url(#SVGID_2_);}
	.st2{fill:url(#SVGID_3_);}
	.st3{fill:url(#SVGID_4_);}
</style>
<g>
	
		<linearGradient id="SVGID_1_" gradientUnits="userSpaceOnUse" x1="60.2525" y1="25.3333" x2="60.2525" y2="80.6707" gradientTransform="matrix(1 0 0 -1 0 104)">
		<stop offset="0" style="stop-color:#00EFD1"/>
		<stop offset="1" style="stop-color:#00ACEA"/>
	</linearGradient>
	<path class="st0" d="M91.5,27.5H29.1c-1.7,0-3,1.3-3,3v45c0,1.7,1.3,3,3,3h62.3c1.7,0,3-1.3,3-3v-45C94.5,28.8,93.1,27.5,91.5,27.5   z M83.3,33.5L59.5,53.6L37,33.5H83.3z M88.5,72.5H32.1V37.2l25.3,22.6c1.1,1,2.8,1,3.9,0.1L88.5,37V72.5z"/>
	
		<linearGradient id="SVGID_2_" gradientUnits="userSpaceOnUse" x1="17.9" y1="25.3333" x2="17.9" y2="80.6707" gradientTransform="matrix(1 0 0 -1 0 104)">
		<stop offset="0" style="stop-color:#00EFD1"/>
		<stop offset="1" style="stop-color:#00ACEA"/>
	</linearGradient>
	<path class="st1" d="M20.5,50h-5.2c-1.7,0-3,1.3-3,3s1.3,3,3,3h5.2c1.7,0,3-1.3,3-3S22.2,50,20.5,50z"/>
	
		<linearGradient id="SVGID_3_" gradientUnits="userSpaceOnUse" x1="13.5" y1="25.3333" x2="13.5" y2="80.6707" gradientTransform="matrix(1 0 0 -1 0 104)">
		<stop offset="0" style="stop-color:#00EFD1"/>
		<stop offset="1" style="stop-color:#00ACEA"/>
	</linearGradient>
	<path class="st2" d="M20.5,62.2h-14c-1.7,0-3,1.3-3,3c0,1.7,1.3,3,3,3h14c1.7,0,3-1.3,3-3S22.2,62.2,20.5,62.2z"/>
	
		<linearGradient id="SVGID_4_" gradientUnits="userSpaceOnUse" x1="13.5" y1="25.3333" x2="13.5" y2="80.6707" gradientTransform="matrix(1 0 0 -1 0 104)">
		<stop offset="0" style="stop-color:#00EFD1"/>
		<stop offset="1" style="stop-color:#00ACEA"/>
	</linearGradient>
	<path class="st3" d="M20.5,37.8h-14c-1.7,0-3,1.3-3,3s1.3,3,3,3h14c1.7,0,3-1.3,3-3S22.2,37.8,20.5,37.8z"/>
</g>
</svg>
